# Blender v3.1.2 OBJ File: 'food.blend'
# www.blender.org
mtllib icosphere.mtl
o Icosphere_Icosphere.002
v 0.000000 -1.000000 0.000000
v 0.723600 -0.447215 0.525720
v -0.276385 -0.447215 0.850640
v -0.894425 -0.447215 0.000000
v -0.276385 -0.447215 -0.850640
v 0.723600 -0.447215 -0.525720
v 0.276385 0.447215 0.850640
v -0.723600 0.447215 0.525720
v -0.723600 0.447215 -0.525720
v 0.276385 0.447215 -0.850640
v 0.894425 0.447215 0.000000
v 0.000000 1.000000 0.000000
vt 0.799568 0.691994
vt 0.600426 0.577018
vt 0.799568 0.462044
vt 0.999572 0.230375
vt 0.800429 0.115402
vt 0.999572 0.000428
vt 0.799573 0.000428
vt 0.799573 0.230378
vt 0.600429 0.115403
vt 0.000428 0.807826
vt 0.199571 0.692849
vt 0.199571 0.922800
vt 0.799569 0.922800
vt 0.600428 0.807825
vt 0.799569 0.692851
vt 0.599570 0.922802
vt 0.400428 0.807831
vt 0.599570 0.692851
vt 0.399571 0.461186
vt 0.200428 0.346215
vt 0.399571 0.231235
vt 0.599573 0.000428
vt 0.599573 0.230379
vt 0.400428 0.115402
vt 0.200428 0.115402
vt 0.399572 0.000428
vt 0.399572 0.230379
vt 0.000428 0.577014
vt 0.199571 0.462042
vt 0.199571 0.691993
vt 0.000428 0.346210
vt 0.199573 0.231235
vt 0.199573 0.461186
vt 0.599570 0.461188
vt 0.400428 0.346210
vt 0.599570 0.231235
vt 0.399572 0.692851
vt 0.399572 0.922802
vt 0.200431 0.807831
vt 0.599572 0.691995
vt 0.400428 0.577016
vt 0.599572 0.462044
vt 0.199572 0.230379
vt 0.000428 0.115402
vt 0.199572 0.000428
vt 0.399572 0.691994
vt 0.200428 0.577019
vt 0.399572 0.462044
vt 0.800426 0.346210
vt 0.999568 0.231235
vt 0.999568 0.461185
vt 0.999566 0.922800
vt 0.800425 0.807828
vt 0.999566 0.692851
vt 0.999567 0.691995
vt 0.800426 0.577021
vt 0.999567 0.462045
vt 0.600426 0.346210
vt 0.799570 0.231235
vt 0.799570 0.461185
vn 0.1876 -0.7947 0.5774
vn 0.6071 -0.7947 0.0000
vn -0.4911 -0.7947 0.3568
vn -0.4911 -0.7947 -0.3568
vn 0.1876 -0.7947 -0.5774
vn 0.9822 -0.1876 0.0000
vn 0.3035 -0.1876 0.9342
vn -0.7946 -0.1876 0.5774
vn -0.7946 -0.1876 -0.5774
vn 0.3035 -0.1876 -0.9342
vn 0.7946 0.1876 0.5774
vn -0.3035 0.1876 0.9342
vn -0.9822 0.1876 0.0000
vn -0.3035 0.1876 -0.9342
vn 0.7946 0.1876 -0.5774
vn 0.4911 0.7947 0.3568
vn -0.1876 0.7947 0.5774
vn -0.6071 0.7947 0.0000
vn -0.1876 0.7947 -0.5774
vn 0.4911 0.7947 -0.3568
usemtl Metal
s off
f 1/1/1 2/2/1 3/3/1
f 2/4/2 1/5/2 6/6/2
f 1/7/3 3/8/3 4/9/3
f 1/10/4 4/11/4 5/12/4
f 1/13/5 5/14/5 6/15/5
f 2/16/6 6/17/6 11/18/6
f 3/19/7 2/20/7 7/21/7
f 4/22/8 3/23/8 8/24/8
f 5/25/9 4/26/9 9/27/9
f 6/28/10 5/29/10 10/30/10
f 2/31/11 11/32/11 7/33/11
f 3/34/12 7/35/12 8/36/12
f 4/37/13 8/38/13 9/39/13
f 5/40/14 9/41/14 10/42/14
f 6/43/15 10/44/15 11/45/15
f 7/46/16 11/47/16 12/48/16
f 8/49/17 7/50/17 12/51/17
f 9/52/18 8/53/18 12/54/18
f 10/55/19 9/56/19 12/57/19
f 11/58/20 10/59/20 12/60/20
